<svg id="Capa_1" enable-background="new 0 0 512 512" height="512" viewBox="0 0 512 512" width="512" xmlns="http://www.w3.org/2000/svg"><g><path d="m496.5 215.367h-28.678v-17.633c0-8.547-6.953-15.5-15.5-15.5h-1.066v-17.634c0-8.547-6.953-15.5-15.5-15.5h-1.067v-23.41c5.866-2.724 11.285-6.464 16.039-11.139 9.219-9.066 14.957-20.683 16.595-33.285h9.566c13.271 0 24.067-10.796 24.067-24.066v-33.133c0-8.703-7.081-15.784-15.784-15.784h-19.249c-2.673-4.929-7.894-8.283-13.884-8.283h-82.833c-5.99 0-11.211 3.354-13.885 8.283h-19.249c-8.703 0-15.783 7.081-15.783 15.784v33.133c0 13.27 10.796 24.066 24.066 24.066h9.669c2.817 19.561 15.399 36.096 32.531 44.25v23.584h-1.066c-8.547 0-15.5 6.953-15.5 15.5v17.633h-1.067c-8.547 0-15.5 6.953-15.5 15.5v17.633h-28.678c-8.547 0-15.5 6.953-15.5 15.5v17.134c0 8.547 6.953 15.5 15.5 15.5h1.067v34.7h-92.96c-4.143 0-7.5 3.358-7.5 7.5s3.357 7.5 7.5 7.5h92.96v18.133h-147.122-8.566c-.275 0-.5-.224-.5-.5v-17.133c0-.276.225-.5.5-.5h32.729c4.143 0 7.5-3.358 7.5-7.5s-3.357-7.5-7.5-7.5h-32.729c-8.547 0-15.5 6.953-15.5 15.5v17.133c0 8.547 6.953 15.5 15.5 15.5h1.066v34.7h-155.689c-8.547 0-15.5 6.953-15.5 15.5v17.133c0 8.547 6.953 15.5 15.5 15.5h1.066v67.05c0 8.703 7.08 15.783 15.783 15.783h25.625c4.143 0 7.5-3.358 7.5-7.5s-3.357-7.5-7.5-7.5h-25.624c-.432 0-.783-.351-.783-.783v-17.35h448.867v17.35c0 .432-.352.783-.783.783h-391.675c-4.143 0-7.5 3.358-7.5 7.5s3.357 7.5 7.5 7.5h391.674c8.703 0 15.783-7.08 15.783-15.783v-232.716h1.066c8.547 0 15.5-6.953 15.5-15.5v-17.133c.001-8.547-6.952-15.5-15.499-15.5zm-10.544-191.3v33.133c0 4.999-4.067 9.066-9.067 9.066h-9.066v-42.983h17.35c.431 0 .783.352.783.784zm-150.667 33.133v-33.133c0-.432.352-.784.783-.784h17.35v42.983h-9.066c-5 .001-9.067-4.067-9.067-9.066zm33.133 15.749v-57.166c0-.432.352-.783.784-.783h82.833c.432 0 .783.352.783.783v57.983c0 11.405-4.479 22.091-12.612 30.09-8.13 7.995-18.859 12.294-30.312 12.104-22.87-.381-41.476-19.676-41.476-43.011zm33.134 57.275c2.644.433 5.344.689 8.092.734.329.005.657.008.985.008 3.063 0 6.087-.251 9.056-.721v18.855h-18.133zm-16.567 34.376c0-.276.225-.5.5-.5h50.267c.275 0 .5.224.5.5v17.633h-51.267zm-16.567 33.133c0-.276.225-.5.5-.5h83.4c.275 0 .5.224.5.5v17.633h-84.4zm-353.422 215.934v-17.133c0-.276.225-.5.5-.5h155.689v18.133h-147.123-8.566c-.275 0-.5-.225-.5-.5zm465.434 50.2h-448.868v-34.7h147.122c4.143 0 7.5-3.358 7.5-7.5v-33.133-42.2h147.123c4.143 0 7.5-3.358 7.5-7.5v-33.134-42.2h139.622v200.367zm16.566-215.867c0 .276-.225.5-.5.5h-171.756c-.275 0-.5-.224-.5-.5v-17.133c0-.276.225-.5.5-.5h171.756c.275 0 .5.224.5.5z"/><path d="m434.689 40.633c0-4.142-3.357-7.5-7.5-7.5h-33.133c-4.143 0-7.5 3.358-7.5 7.5s3.357 7.5 7.5 7.5h33.133c4.142 0 7.5-3.358 7.5-7.5z"/><path d="m69.468 288.579c2.98 2.981 6.944 4.623 11.161 4.623 4.216 0 8.18-1.642 11.16-4.623l147.132-147.132c.283-.282.735-.327.992-.096 4.641 4.185 10.631 6.366 16.896 6.168 12.824-.424 23.257-11.424 23.257-24.521v-32.664c0-13.271-10.796-24.067-24.066-24.067h-32.665c-13.202 0-24.205 10.523-24.527 23.457-.154 6.181 2.038 12.11 6.174 16.696.145.16.144.753-.097.993l-147.132 147.131c-6.152 6.154-6.152 16.167.001 22.321zm-1.108-23.429 147.132-147.132c5.842-5.843 6.123-15.553.629-21.644-1.553-1.722-2.376-3.951-2.317-6.277.121-4.87 4.396-8.831 9.531-8.831h32.665c4.999 0 9.066 4.067 9.066 9.067v32.665c0 5.095-3.927 9.369-8.753 9.529-2.37.079-4.611-.744-6.355-2.315-6.196-5.589-15.705-5.312-21.645.629l-147.131 147.132c-.306.304-.802.304-1.107-.001l-11.715-11.713c-.305-.306-.305-.803 0-1.109z"/></g></svg>